<?xml version="1.0" encoding="utf-8"?>
<!-- Generator: Adobe Illustrator 18.1.0, SVG Export Plug-In . SVG Version: 6.00 Build 0)  -->
<!DOCTYPE svg PUBLIC "-//W3C//DTD SVG 1.1//EN" "http://www.w3.org/Graphics/SVG/1.1/DTD/svg11.dtd">
<svg version="1.1" id="Layer_1" xmlns="http://www.w3.org/2000/svg" xmlns:xlink="http://www.w3.org/1999/xlink" x="0px" y="0px"
	 viewBox="0 0 10 10" enable-background="new 0 0 10 10" xml:space="preserve">
<path fill-rule="evenodd" clip-rule="evenodd" fill="#00EDED" d="M6.6,3.8L3.9,6.5c-0.1,0.1-0.2,0.1-0.3,0c-0.1-0.1-0.1-0.2,0-0.3
	l2.7-2.7c0.1-0.1,0.2-0.1,0.3,0C6.7,3.6,6.7,3.7,6.6,3.8z"/>
<path fill-rule="evenodd" clip-rule="evenodd" fill="#00EDED" d="M3.3,3.8L0.6,6.5c-0.1,0.1-0.2,0.1-0.3,0c-0.1-0.1-0.1-0.2,0-0.3
	l2.7-2.7c0.1-0.1,0.2-0.1,0.3,0C3.4,3.6,3.4,3.7,3.3,3.8z"/>
<path fill-rule="evenodd" clip-rule="evenodd" fill="#00EDED" d="M9.8,3.8L7.1,6.5C7,6.6,6.9,6.6,6.8,6.5c-0.1-0.1-0.1-0.2,0-0.3
	l2.7-2.7c0.1-0.1,0.2-0.1,0.3,0C9.9,3.6,9.9,3.7,9.8,3.8z"/>
</svg>
