<?xml version="1.0" encoding="utf-8"?>
<!-- Generator: Adobe Illustrator 18.1.0, SVG Export Plug-In . SVG Version: 6.00 Build 0)  -->
<!DOCTYPE svg PUBLIC "-//W3C//DTD SVG 1.1//EN" "http://www.w3.org/Graphics/SVG/1.1/DTD/svg11.dtd">
<svg version="1.1" id="Layer_1" xmlns="http://www.w3.org/2000/svg" xmlns:xlink="http://www.w3.org/1999/xlink" x="0px" y="0px"
	 viewBox="0 0 10 10" enable-background="new 0 0 10 10" xml:space="preserve">
<path fill-rule="evenodd" clip-rule="evenodd" fill="#00EDED" d="M6.4,3.8L3.8,6.4c-0.1,0.1-0.2,0.1-0.3,0c-0.1-0.1-0.1-0.2,0-0.3
	l2.6-2.6c0.1-0.1,0.2-0.1,0.3,0C6.5,3.6,6.5,3.8,6.4,3.8z"/>
<path fill-rule="evenodd" clip-rule="evenodd" fill="#00EDED" d="M9.8,3.8L7.2,6.4C7.1,6.5,7,6.5,6.9,6.4c-0.1-0.1-0.1-0.2,0-0.3
	l2.6-2.6c0.1-0.1,0.2-0.1,0.3,0C9.9,3.6,9.9,3.8,9.8,3.8z"/>
<path fill-rule="evenodd" clip-rule="evenodd" fill="#00EDED" d="M3.1,3.8L0.5,6.4c-0.1,0.1-0.2,0.1-0.3,0c-0.1-0.1-0.1-0.2,0-0.3
	l2.6-2.6c0.1-0.1,0.2-0.1,0.3,0C3.2,3.6,3.2,3.8,3.1,3.8z"/>
</svg>
