<?xml version="1.0" encoding="utf-8"?>
<!-- Generator: Adobe Illustrator 18.1.0, SVG Export Plug-In . SVG Version: 6.00 Build 0)  -->
<!DOCTYPE svg PUBLIC "-//W3C//DTD SVG 1.1//EN" "http://www.w3.org/Graphics/SVG/1.1/DTD/svg11.dtd">
<svg version="1.1" id="Layer_1" xmlns="http://www.w3.org/2000/svg" xmlns:xlink="http://www.w3.org/1999/xlink" x="0px" y="0px"
	 viewBox="0 0 64 42.6" enable-background="new 0 0 64 42.6" xml:space="preserve">
<path id="MAIL_2_" fill-rule="evenodd" clip-rule="evenodd" fill="#00B3B8" d="M42.8,19.1L60.9,1.6c0.5,0.5,0.8,1.2,0.8,2v35.3
	c0,0.7-0.3,1.4-0.8,1.9L42.8,19.1z M3.2,1.5C3.7,1,4.3,0.8,5,0.8h54c0.7,0,1.4,0.3,1.9,0.7L32,24L3.2,1.5z M3,40.8
	c-0.5-0.5-0.8-1.2-0.8-1.9V3.6c0-0.8,0.3-1.5,0.8-2l18.1,17.6L3,40.8z M32,29.6l7.6-7.3l21.3,18.7c-0.5,0.5-1.2,0.8-1.9,0.8H5
	c-0.7,0-1.4-0.3-1.9-0.8l21.3-18.7L32,29.6z"/>
</svg>
