<?xml version="1.0" encoding="utf-8"?>
<!-- Generator: Adobe Illustrator 18.1.0, SVG Export Plug-In . SVG Version: 6.00 Build 0)  -->
<!DOCTYPE svg PUBLIC "-//W3C//DTD SVG 1.1//EN" "http://www.w3.org/Graphics/SVG/1.1/DTD/svg11.dtd">
<svg version="1.1" id="Layer_1" xmlns="http://www.w3.org/2000/svg" xmlns:xlink="http://www.w3.org/1999/xlink" x="0px" y="0px"
	 viewBox="0 0 256 173.5" enable-background="new 0 0 256 173.5" xml:space="preserve">
<path id="LIST_2_" fill-rule="evenodd" clip-rule="evenodd" d="M238.8,99H17.2c-6.3,0-11.5-5.1-11.5-11.5c0-6.3,5.1-11.5,11.5-11.5
	h221.6c6.3,0,11.5,5.1,11.5,11.5C250.2,93.8,245.1,99,238.8,99z M238.8,37.8H17.2c-6.3,0-11.5-5.1-11.5-11.5
	c0-6.3,5.1-11.5,11.5-11.5h221.6c6.3,0,11.5,5.1,11.5,11.5C250.2,32.7,245.1,37.8,238.8,37.8z M17.2,137.2h221.6
	c6.3,0,11.5,5.1,11.5,11.5c0,6.3-5.1,11.5-11.5,11.5H17.2c-6.3,0-11.5-5.1-11.5-11.5C5.8,142.3,10.9,137.2,17.2,137.2z"/>
</svg>
