<?xml version="1.0" encoding="utf-8"?>
<!-- Generator: Adobe Illustrator 18.1.0, SVG Export Plug-In . SVG Version: 6.00 Build 0)  -->
<!DOCTYPE svg PUBLIC "-//W3C//DTD SVG 1.1//EN" "http://www.w3.org/Graphics/SVG/1.1/DTD/svg11.dtd">
<svg version="1.1" id="Layer_1" xmlns="http://www.w3.org/2000/svg" xmlns:xlink="http://www.w3.org/1999/xlink" x="0px" y="0px"
	 viewBox="0 0 64 64" enable-background="new 0 0 64 64" xml:space="preserve">
<path id="linkedin_2_" fill-rule="evenodd" clip-rule="evenodd" d="M49.2,62V40.5c0-4.4-1.3-8.8-6.5-8.8c-5.2,0-7.4,4.4-7.4,8.9V62
	H21.5V22.7h13.8V28c3.6-4.6,6.8-6.5,12.5-6.5c5.7,0,15.1,2.7,15.1,18.2V62H49.2z M8.8,16.9C4.5,16.9,1,13.8,1,9.9C1,6.1,4.5,3,8.8,3
	c4.3,0,7.7,3.1,7.7,6.9C16.5,13.8,13,16.9,8.8,16.9z M15.7,62H1.8V22.7h13.9V62z"/>
</svg>
