<?xml version="1.0" encoding="utf-8"?>
<!-- Generator: Adobe Illustrator 18.1.0, SVG Export Plug-In . SVG Version: 6.00 Build 0)  -->
<!DOCTYPE svg PUBLIC "-//W3C//DTD SVG 1.1//EN" "http://www.w3.org/Graphics/SVG/1.1/DTD/svg11.dtd">
<svg version="1.1" id="Layer_1" xmlns="http://www.w3.org/2000/svg" xmlns:xlink="http://www.w3.org/1999/xlink" x="0px" y="0px"
	 viewBox="0 0 46 64" enable-background="new 0 0 46 64" xml:space="preserve">
<g>
	<g>
		<path d="M21.7,40.2c-0.1,0-6.7-11.3-6.8-11.4c-1.4-3-2.5-6.1-0.2-7.5L5.1,5.1C2.6,6.9-4.5,17.1,8.8,40
			c13.9,24.2,27.2,23.2,29.8,21.5l-9.4-15.9C27,47,25.1,44.9,21.7,40.2z M45,55.4L45,55.4c0,0-7.3-12.4-7.3-12.4
			c-0.6-1-1.8-1.3-2.8-0.7L30.4,45l9.4,15.9c0,0,4.5-2.6,4.5-2.6l0,0C45.3,57.6,45.6,56.3,45,55.4z M20.4,17.9L20.4,17.9
			c1-0.6,1.3-1.9,0.7-2.8l0,0c0,0-7.5-12.7-7.5-12.7c-0.6-1-1.8-1.3-2.8-0.7L6.3,4.3L16,20.6C16,20.6,20.4,17.9,20.4,17.9z"/>
	</g>
</g>
</svg>
