<?xml version="1.0" encoding="utf-8"?>
<!-- Generator: Adobe Illustrator 18.1.0, SVG Export Plug-In . SVG Version: 6.00 Build 0)  -->
<!DOCTYPE svg PUBLIC "-//W3C//DTD SVG 1.1//EN" "http://www.w3.org/Graphics/SVG/1.1/DTD/svg11.dtd">
<svg version="1.1" id="Layer_1" xmlns="http://www.w3.org/2000/svg" xmlns:xlink="http://www.w3.org/1999/xlink" x="0px" y="0px"
	 viewBox="1.7 2.5 4.8 7.5" enable-background="new 1.7 2.5 4.8 7.5" xml:space="preserve">
<path id="tumblr_2_" fill-rule="evenodd" clip-rule="evenodd" fill="#FFFFFF" d="M6.5,9.4C6.2,9.5,6,9.6,5.7,9.7
	C5.5,9.8,5.2,9.8,4.9,9.8c-0.3,0-0.5,0-0.8-0.1C3.9,9.6,3.6,9.5,3.5,9.3C3.3,9.1,3.2,9,3.1,8.8C3,8.6,3,8.4,3,8V5.5H2v-1
	c0.3-0.1,0.6-0.2,0.8-0.4C3,3.9,3.2,3.7,3.3,3.4c0.1-0.2,0.2-0.6,0.3-0.9h1v1.7h1.7v1.3H4.6v1.9c0,0.4,0,0.7,0,0.8
	c0,0.1,0.2,0.2,0.3,0.3c0.2,0.1,0.3,0.1,0.5,0.1c0.4,0,0.7-0.1,1.1-0.4V9.4z"/>
</svg>
