<?xml version="1.0" encoding="utf-8"?>
<!-- Generator: Adobe Illustrator 18.1.0, SVG Export Plug-In . SVG Version: 6.00 Build 0)  -->
<!DOCTYPE svg PUBLIC "-//W3C//DTD SVG 1.1//EN" "http://www.w3.org/Graphics/SVG/1.1/DTD/svg11.dtd">
<svg version="1.1" id="Layer_1" xmlns="http://www.w3.org/2000/svg" xmlns:xlink="http://www.w3.org/1999/xlink" x="0px" y="0px"
	 viewBox="1.7 0 6.5 10" enable-background="new 1.7 0 6.5 10" xml:space="preserve">
<path id="tumblr_2_" fill-rule="evenodd" clip-rule="evenodd" d="M8,9.3C7.6,9.5,7.2,9.6,6.9,9.7C6.6,9.7,6.2,9.8,5.8,9.8
	c-0.4,0-0.7-0.1-1-0.2C4.5,9.5,4.2,9.4,3.9,9.1C3.7,8.9,3.5,8.7,3.4,8.5c-0.1-0.2-0.1-0.6-0.1-1V4.1H2V2.8c0.4-0.1,0.8-0.3,1.1-0.5
	C3.3,2,3.6,1.7,3.7,1.4C3.9,1.1,4,0.7,4.1,0.2h1.4v2.2h2.2v1.7H5.4v2.5c0,0.6,0,0.9,0.1,1C5.5,7.8,5.7,7.9,5.8,8
	C6,8.2,6.3,8.2,6.6,8.2c0.5,0,1-0.2,1.4-0.5V9.3z"/>
</svg>
